<?xml version="1.0" encoding="UTF-8"?>
<svg version="1.1" xmlns="http://www.w3.org/2000/svg" width="79" height="80">
<path d="M0 0 C1.39257271 -0.0099852 1.39257271 -0.0099852 2.8132782 -0.02017212 C4.77418035 -0.03027811 6.73511675 -0.03498978 8.69604492 -0.03466797 C11.67880702 -0.03903263 14.66007838 -0.07535038 17.64257812 -0.11328125 C19.55338039 -0.11915173 21.46418964 -0.12311958 23.375 -0.125 C24.70039543 -0.14655655 24.70039543 -0.14655655 26.05256653 -0.16854858 C33.51496256 -0.11415295 38.63544551 1.94352599 44.26171875 6.8359375 C50.35327852 14.00247841 49.55444083 22.67751352 49.51171875 31.6484375 C49.50688477 32.70281006 49.50205078 33.75718262 49.49707031 34.84350586 C49.47312801 38.00796058 49.43411094 41.17175249 49.38671875 44.3359375 C49.37415039 45.24666016 49.36158203 46.15738281 49.34863281 47.09570312 C49.30325037 49.53153606 49.22739478 51.96391566 49.13671875 54.3984375 C49.1227002 55.10460205 49.10868164 55.8107666 49.09423828 56.53833008 C48.80470543 62.4982414 46.91379483 66.91211829 42.5703125 71.078125 C41.99410156 71.45195313 41.41789062 71.82578125 40.82421875 72.2109375 C40.24542969 72.60023437 39.66664062 72.98953125 39.0703125 73.390625 C36.01616685 75.10548172 33.43670472 75.46687111 30.01049805 75.49707031 C29.12915695 75.50667786 28.24781586 75.5162854 27.33976746 75.52618408 C25.91474663 75.5325589 25.91474663 75.5325589 24.4609375 75.5390625 C23.48059036 75.54476257 22.50024323 75.55046265 21.4901886 75.55633545 C19.41477538 75.56578354 17.33934717 75.57231867 15.26391602 75.57617188 C12.09689991 75.58586806 8.9305354 75.61688963 5.76367188 75.6484375 C3.7460976 75.65496871 1.72851869 75.66021872 -0.2890625 75.6640625 C-1.23300369 75.6764093 -2.17694489 75.6887561 -3.14949036 75.70147705 C-9.42651971 75.68032973 -13.7556171 74.79549195 -18.66015625 70.57421875 C-19.2221875 69.93871094 -19.78421875 69.30320312 -20.36328125 68.6484375 C-20.935625 68.02582031 -21.50796875 67.40320313 -22.09765625 66.76171875 C-25.68611501 61.01833501 -25.92221181 54.39939335 -25.9140625 47.8125 C-25.91834763 47.02628265 -25.92263275 46.24006531 -25.92704773 45.43002319 C-25.93275275 43.77790279 -25.93331979 42.1257573 -25.92895508 40.47363281 C-25.92579796 37.97416426 -25.94929169 35.47588505 -25.97460938 32.9765625 C-26.05436098 13.82805832 -26.05436098 13.82805832 -20.74609375 6.8984375 C-20.08351563 6.3828125 -19.4209375 5.8671875 -18.73828125 5.3359375 C-18.08085937 4.7996875 -17.4234375 4.2634375 -16.74609375 3.7109375 C-11.2349428 0.15796106 -6.38490329 0.01597283 0 0 Z M-18.98828125 10.8359375 C-21.26449841 14.33781005 -21.73406805 17.31605675 -21.77441406 21.44262695 C-21.78402161 22.24058182 -21.79362915 23.03853668 -21.80352783 23.860672 C-21.80777771 24.71489243 -21.81202759 25.56911285 -21.81640625 26.44921875 C-21.82210632 27.33699509 -21.8278064 28.22477142 -21.8336792 29.13945007 C-21.84311425 31.01637587 -21.84965724 32.89331812 -21.85351562 34.77026367 C-21.86321102 37.62773863 -21.8942442 40.4844909 -21.92578125 43.34179688 C-21.93231297 45.16926658 -21.93756278 46.99674141 -21.94140625 48.82421875 C-21.95375305 49.67236649 -21.96609985 50.52051422 -21.9788208 51.3943634 C-21.95341728 58.22889133 -20.71322535 62.92100179 -16.11328125 68.2109375 C-12.79130534 71.03461703 -10.36080109 71.46057037 -6.14526367 71.51293945 C-5.24390182 71.52577469 -4.34253998 71.53860992 -3.41386414 71.55183411 C-1.95603264 71.56291451 -1.95603264 71.56291451 -0.46875 71.57421875 C0.53379318 71.5822905 1.53633636 71.59036224 2.56925964 71.59867859 C4.69174473 71.61251113 6.81425199 71.623237 8.93676758 71.63110352 C12.17637436 71.64831612 15.4149605 71.69221025 18.65429688 71.73632812 C20.71744042 71.74645537 22.78059263 71.75497137 24.84375 71.76171875 C26.29247246 71.78798088 26.29247246 71.78798088 27.77046204 71.81477356 C33.45655956 71.79650969 37.04185398 71.37867184 41.38671875 67.3359375 C45.66826457 61.65860417 45.97873758 56.99460624 45.91796875 50.01953125 C45.92179565 49.0448439 45.92562256 48.07015656 45.92956543 47.06593323 C45.93227647 45.0144039 45.92497213 42.96283953 45.90820312 40.91137695 C45.88675906 37.77932473 45.9080446 34.64956014 45.93359375 31.51757812 C45.93095078 29.51822413 45.92582645 27.51887155 45.91796875 25.51953125 C45.92606567 24.58813828 45.9341626 23.6567453 45.94250488 22.6971283 C45.8617209 17.0724788 45.15986488 13.78514896 41.38671875 9.3359375 C37.43665217 5.77124327 34.51900319 4.22993438 29.20996094 4.15893555 C27.95285309 4.13968269 27.95285309 4.13968269 26.67034912 4.12004089 C25.31565521 4.10896049 25.31565521 4.10896049 23.93359375 4.09765625 C23.00001038 4.0895845 22.066427 4.08151276 21.10455322 4.07319641 C19.12750093 4.05936517 17.15042486 4.04863872 15.17333984 4.04077148 C12.16196948 4.02358164 9.15170374 3.97968963 6.140625 3.93554688 C4.21745597 3.92541744 2.29427763 3.91690212 0.37109375 3.91015625 C-0.97145477 3.88389412 -0.97145477 3.88389412 -2.34112549 3.85710144 C-9.50261681 3.88173046 -13.93041882 5.51187178 -18.98828125 10.8359375 Z " fill="#CBCBCB" transform="translate(27.61328125,1.6640625)"/>
<path d="M0 0 C0 2.31 0 4.62 0 7 C-7.30313015 10.73311367 -7.30313015 10.73311367 -10.9375 12.125 C-13.1760887 12.81156559 -13.1760887 12.81156559 -14 15 C-13.40832031 15.19335938 -12.81664062 15.38671875 -12.20703125 15.5859375 C-11.41683594 15.84632812 -10.62664063 16.10671875 -9.8125 16.375 C-9.03519531 16.63023438 -8.25789063 16.88546875 -7.45703125 17.1484375 C-4.94255032 18.01991102 -2.47087874 19.0116485 0 20 C0 24.29 0 28.58 0 33 C-11.9140625 38.95703125 -11.9140625 38.95703125 -14.01269531 40.00244141 C-15.81546414 40.90736935 -17.60761529 41.83337298 -19.3984375 42.76171875 C-22 44 -22 44 -24 44 C-24 41.69 -24 39.38 -24 37 C-19.72886302 34.81673892 -15.49797113 32.68673918 -11 31 C-14.85330119 27.64930331 -19.34824694 25.98383587 -24 24 C-24 19.38 -24 14.76 -24 10 C-21.86917969 9.04287109 -21.86917969 9.04287109 -19.6953125 8.06640625 C-17.83853183 7.23179272 -15.98176153 6.39715611 -14.125 5.5625 C-12.71927734 4.93118164 -12.71927734 4.93118164 -11.28515625 4.28710938 C-10.38925781 3.88427734 -9.49335937 3.48144531 -8.5703125 3.06640625 C-7.74289551 2.69459229 -6.91547852 2.32277832 -6.06298828 1.93969727 C-1.80462458 0 -1.80462458 0 0 0 Z " fill="#F3F3F3" transform="translate(52,17)"/>
<path d="M0 0 C4.16713435 4.16713435 3.12666494 11.66062352 3.13964844 17.23657227 C3.13481445 18.25162842 3.12998047 19.26668457 3.125 20.3125 C3.12016602 21.36687256 3.11533203 22.42124512 3.11035156 23.50756836 C3.08640926 26.67202308 3.04739219 29.83581499 3 33 C2.98743164 33.91072266 2.97486328 34.82144531 2.96191406 35.75976562 C2.91653162 38.19559856 2.84067603 40.62797816 2.75 43.0625 C2.73598145 43.76866455 2.72196289 44.4748291 2.70751953 45.20239258 C2.41798668 51.1623039 0.52707608 55.57618079 -3.81640625 59.7421875 C-4.39261719 60.11601563 -4.96882813 60.48984375 -5.5625 60.875 C-6.43068359 61.45894531 -6.43068359 61.45894531 -7.31640625 62.0546875 C-10.3705519 63.76954422 -12.95001403 64.13093361 -16.3762207 64.16113281 C-17.2575618 64.17074036 -18.13890289 64.1803479 -19.04695129 64.19024658 C-20.47197212 64.1966214 -20.47197212 64.1966214 -21.92578125 64.203125 C-22.90612839 64.20882507 -23.88647552 64.21452515 -24.89653015 64.22039795 C-26.97194337 64.22984604 -29.04737158 64.23638117 -31.12280273 64.24023438 C-34.28981884 64.24993056 -37.45618335 64.28095213 -40.62304688 64.3125 C-42.64062115 64.31903121 -44.65820006 64.32428122 -46.67578125 64.328125 C-47.61972244 64.3404718 -48.56366364 64.3528186 -49.53620911 64.36553955 C-54.76658052 64.34791842 -58.49942939 63.98734977 -63 61 C-63.33 60.34 -63.66 59.68 -64 59 C-63.236875 59.309375 -62.47375 59.61875 -61.6875 59.9375 C-58.21608671 61.30991921 -55.50500655 62.1254136 -51.79150391 62.12939453 C-50.94697662 62.13254669 -50.10244934 62.13569885 -49.23233032 62.13894653 C-48.32292694 62.1369223 -47.41352356 62.13489807 -46.4765625 62.1328125 C-45.53823578 62.13376923 -44.59990906 62.13472595 -43.63314819 62.13571167 C-41.64768405 62.13639228 -39.66221768 62.13454628 -37.67675781 62.13037109 C-34.64382901 62.12503314 -31.61104911 62.13031394 -28.578125 62.13671875 C-26.64843717 62.13605771 -24.71874944 62.13477602 -22.7890625 62.1328125 C-21.88370758 62.13483673 -20.97835266 62.13686096 -20.04556274 62.13894653 C-15.9021348 62.12359596 -12.03968996 62.05196995 -8 61 C-7.67 59.35 -7.34 57.7 -7 56 C-6.34 56 -5.68 56 -5 56 C-4.7525 55.21625 -4.505 54.4325 -4.25 53.625 C-3 51 -3 51 1 49 C0.67 32.83 0.34 16.66 0 0 Z " fill="#C0C0C0" transform="translate(74,13)"/>
<path d="M0 0 C0.495 1.485 0.495 1.485 1 3 C-3.83992321 5.5263473 -8.47174702 5.27267061 -13.7890625 5.23046875 C-14.72930267 5.23001053 -15.66954285 5.22955231 -16.63827515 5.2290802 C-18.62019111 5.22606617 -20.60210488 5.21820534 -22.58398438 5.20581055 C-25.62117883 5.18752301 -28.65806865 5.18530122 -31.6953125 5.18554688 C-33.62239847 5.18063242 -35.54948238 5.17480442 -37.4765625 5.16796875 C-38.84066757 5.16629951 -38.84066757 5.16629951 -40.23233032 5.16459656 C-41.0768576 5.15821671 -41.92138489 5.15183685 -42.79150391 5.14526367 C-43.53365143 5.14145187 -44.27579895 5.13764008 -45.04043579 5.13371277 C-47 5 -47 5 -50 4 C-50 3.01 -50 2.02 -50 1 C-49.40309357 1.00222061 -48.80618713 1.00444122 -48.19119263 1.00672913 C-41.99481808 1.02880297 -35.79845465 1.04391542 -29.60205078 1.05493164 C-27.28759304 1.05996943 -24.9731385 1.06679981 -22.65869141 1.07543945 C-19.3375571 1.08752924 -16.01646475 1.09323375 -12.6953125 1.09765625 C-11.65569366 1.10281754 -10.61607483 1.10797882 -9.54495239 1.11329651 C-8.58410736 1.11337204 -7.62326233 1.11344757 -6.63330078 1.11352539 C-5.78502716 1.115746 -4.93675354 1.11796661 -4.06277466 1.12025452 C-1.93597607 1.13232184 -1.93597607 1.13232184 0 0 Z " fill="#EFEFEF" transform="translate(65,71)"/>
<path d="M0 0 C0.66 0 1.32 0 2 0 C2.84447523 2.93557293 3.12209423 5.53445289 3.11352539 8.58496094 C3.11344986 9.48559265 3.11337433 10.38622437 3.11329651 11.31414795 C3.10813522 12.27782288 3.10297394 13.2414978 3.09765625 14.234375 C3.0962413 15.22753723 3.09482635 16.22069946 3.09336853 17.24395752 C3.08777588 20.41266912 3.0752247 23.58130979 3.0625 26.75 C3.05748405 28.89973856 3.05292131 31.04947823 3.04882812 33.19921875 C3.03780886 38.46616999 3.021078 43.73307993 3 49 C2.34 49 1.68 49 1 49 C0.9845388 48.16434761 0.9845388 48.16434761 0.96876526 47.31181335 C0.8606998 41.52066308 0.74610173 35.72966839 0.62768555 29.9387207 C0.58433687 27.7766444 0.54266175 25.61453387 0.50268555 23.45239258 C0.44498156 20.34706298 0.38128728 17.24190564 0.31640625 14.13671875 C0.29969376 13.16788254 0.28298126 12.19904633 0.26576233 11.20085144 C0.24581711 10.3001442 0.22587189 9.39943695 0.20532227 8.47143555 C0.18977798 7.67867722 0.1742337 6.88591888 0.15821838 6.06913757 C0.06918774 3.80260226 0.06918774 3.80260226 -1 1 C-0.67 0.67 -0.34 0.34 0 0 Z " fill="#FDFDFD" transform="translate(72,13)"/>
<path d="M0 0 C0.33 0 0.66 0 1 0 C1.01458252 1.17506104 1.02916504 2.35012207 1.04418945 3.56079102 C1.10239511 7.94260272 1.17962608 12.32391248 1.26245117 16.70532227 C1.29559607 18.59749167 1.32366017 20.48975746 1.34643555 22.38208008 C1.38017421 25.11060454 1.43249865 27.838254 1.48828125 30.56640625 C1.49467117 31.40522842 1.5010611 32.2440506 1.50764465 33.10829163 C1.67556732 39.89760437 2.84996762 44.74996612 7.6875 49.8125 C8.450625 50.534375 9.21375 51.25625 10 52 C10 52.66 10 53.32 10 54 C4.31417757 52.67771571 2.2838907 50.59744698 -1 46 C-2 43 -2 43 -1 40 C-0.88764839 38.66548737 -0.82424351 37.32645611 -0.79467773 35.98754883 C-0.77473251 35.18694534 -0.75478729 34.38634186 -0.73423767 33.56147766 C-0.70916893 32.27227669 -0.70916893 32.27227669 -0.68359375 30.95703125 C-0.66281265 30.0734343 -0.64203156 29.18983734 -0.62062073 28.27946472 C-0.55524246 25.45722215 -0.49629472 22.63488665 -0.4375 19.8125 C-0.39430363 17.89907894 -0.35068898 15.98566727 -0.30664062 14.07226562 C-0.19957305 9.38160563 -0.09827248 4.69085217 0 0 Z " fill="#EAEAEA" transform="translate(5,20)"/>
<path d="M0 0 C3.82236949 0.17384122 5.73296288 1.69171692 8.61962891 4.11914062 C9.99462891 6.86914063 9.99462891 6.86914063 10.61962891 9.11914062 C9.62962891 9.44914063 8.63962891 9.77914063 7.61962891 10.11914062 C5.90087891 8.93945312 5.90087891 8.93945312 4.11962891 7.24414062 C0.7242735 4.04238005 -1.82257777 3.01423156 -6.48461914 2.91381836 C-7.30524338 2.89387314 -8.12586761 2.87392792 -8.97135925 2.8533783 C-10.2933709 2.82830956 -10.2933709 2.82830956 -11.64208984 2.80273438 C-13.00077934 2.77156273 -13.00077934 2.77156273 -14.38691711 2.73976135 C-17.28049126 2.67437504 -20.17415616 2.61543158 -23.06787109 2.55664062 C-25.02946902 2.51344503 -26.99105777 2.4698304 -28.95263672 2.42578125 C-33.76178849 2.3187048 -38.57103155 2.21740648 -43.38037109 2.11914062 C-43.38037109 1.78914062 -43.38037109 1.45914062 -43.38037109 1.11914062 C-37.79364414 0.97575432 -32.2068929 0.83336844 -26.62011719 0.69189453 C-24.7210217 0.64366456 -22.82193304 0.59516506 -20.92285156 0.54638672 C-18.18735492 0.47617229 -15.45183489 0.40693903 -12.71630859 0.33789062 C-11.87232513 0.31601685 -11.02834167 0.29414307 -10.15878296 0.27160645 C-8.59151473 0.23240255 -7.02415924 0.1964869 -5.45672607 0.16455078 C-3.63742559 0.12476244 -1.81860634 0.06409648 0 0 Z " fill="#DCDCDC" transform="translate(63.38037109375,3.880859375)"/>
<path d="M0 0 C4.56140868 2.01550616 7.71436161 4.23117949 11 8 C11 8.66 11 9.32 11 10 C5.33802191 8.68326091 3.25415939 6.59410737 0 2 C0 1.34 0 0.68 0 0 Z " fill="#D3D3D3" transform="translate(4,64)"/>
<path d="M0 0 C2.375 0.1875 2.375 0.1875 5 1 C6.3125 3.5625 6.3125 3.5625 7 6 C6.01 6.33 5.02 6.66 4 7 C2 5.1875 2 5.1875 0 3 C0 2.01 0 1.02 0 0 Z " fill="#D5D5D5" transform="translate(67,7)"/>
<path d="M0 0 C2.12508244 3.18762365 2.5020163 5.26512223 3 9 C2.01 9.495 2.01 9.495 1 10 C-0.625 8.375 -0.625 8.375 -2 6 C-1.1875 2.75 -1.1875 2.75 0 0 Z " fill="#F3F3F3" transform="translate(5,57)"/>
<path d="M0 0 C1.65 0 3.3 0 5 0 C4.34 1.32 3.68 2.64 3 4 C1.68 4 0.36 4 -1 4 C-0.67 2.68 -0.34 1.36 0 0 Z " fill="#CCCCCC" transform="translate(67,69)"/>
</svg>
