<svg xmlns="http://www.w3.org/2000/svg" id="Icon" version="1.1" viewBox="0 0 48 48"><defs><style>.st0{fill:#ff0420}.st1{fill:#fff}</style></defs><path d="M24 6.3v7.5c-7.7 0-13.9 6.2-13.9 13.9S16.3 41.6 24 41.6v-7.5c7.7 0 13.9-6.2 13.9-13.9S31.7 6.3 24 6.3Zm6.9 17.8c-3 1.5-5.3 3.8-6.8 6.8H24c-1.5-3-3.8-5.3-6.8-6.8 3-1.6 5.3-3.9 6.8-7h.1c1.5 3 3.8 5.3 6.8 6.8Z" class="st0"/><path d="M0 0v48h48V0H0Zm24 44C13 44 4 35 4 24S13 4 24 4s20 9 20 20-9 20-20 20Z" class="st0"/><path d="M24 4C13 4 4 13 4 24s9 20 20 20 20-9 20-20S35 4 24 4Zm0 30.2v7.5c-7.7 0-13.9-6.2-13.9-13.9S16.3 13.9 24 13.9V6.4c7.7 0 13.9 6.2 13.9 13.9S31.7 34.2 24 34.2Z" class="st1"/><path d="M24.1 17.1H24c-1.5 3-3.8 5.3-6.8 6.8 3 1.6 5.3 3.9 6.8 7h.1c1.5-3 3.8-5.3 6.8-6.8-3-1.6-5.3-3.9-6.8-7Z" class="st1"/></svg>